<svg xmlns="http://www.w3.org/2000/svg" viewBox="0 0 215.67 52.54"><defs><style>.cls-1{fill:#e57373;}.cls-1,.cls-2,.cls-3{stroke:#d16d6d;stroke-miterlimit:10;}.cls-2,.cls-3{fill:#fff;}.cls-3{stroke-linecap:round;}</style></defs><title>Asset 1</title><g id="Layer_2" data-name="Layer 2"><g id="Layer_1-2" data-name="Layer 1"><path class="cls-1" d="M30.2,6.62A3,3,0,0,1,27,9.8,2.52,2.52,0,0,1,24.2,7.4c-.24-1.08-2.28-2-5-2-7.44,0-12.84,11.76-12.84,19.32s3.9,11.16,7.62,11.16a13.11,13.11,0,0,0,9.48-4.74c.12-1.56.6-3.42,3.18-3.42a2.85,2.85,0,0,1,3.06,2.52A5.53,5.53,0,0,1,28,34c-2.64,2.82-8.52,7-14.88,7C5.78,40.94.5,35.6.5,24.38.5,15.38,7.58.5,18.8.5,25.64.5,30.2,3.74,30.2,6.62Z"/><path class="cls-1" d="M108.68,16a2.17,2.17,0,0,1-2.34,2.34c-1.08,0-1.2-.3-1.44-.6s-.66-.66-3.18-.66c-5.94,0-10.5,3.12-10.5,5.82a1.49,1.49,0,0,0,1.68,1.56c1.44,0,3.3-.78,5.52-1.32,2.46-.66,4.5-1.38,6.72-1.38,3.6,0,6.54,2.16,6.54,6.12,0,9.6-12.54,12.72-17.16,12.72-4.2,0-8.34-2.22-8.34-5a2.88,2.88,0,0,1,3-3.18c1.74,0,2.22,1,2.22,1.56a1.73,1.73,0,0,1-.24.84,5.17,5.17,0,0,0,3.6,1.32c4.08,0,11.34-2.58,11.34-7.26a2.22,2.22,0,0,0-2.52-2.4c-1.62,0-3.18.72-5.52,1.32a24.34,24.34,0,0,1-7.14,1.32c-3.24,0-5.28-2.46-5.28-5.58,0-6.36,8.88-10.92,16-10.92C105.56,12.56,108.68,13.76,108.68,16Z"/><path class="cls-1" d="M131.84,9.32c-.18-.24-.36-.48-.36-1.5,0-1.62,1.56-2.1,3.84-2.1,1.2,0,2.7.24,2.7,1.86a2.27,2.27,0,0,1-.6,1.44v3.72l7.5-1.26a1.76,1.76,0,0,1,1.14-.48,2.24,2.24,0,0,1,2.22,2.46c0,1.92-.78,2.88-2,2.88a1.16,1.16,0,0,1-1-.3l-7.86,1.26V33.5c0,1,.3,1.74,1.08,1.74,1.14,0,5.82-2.64,8.28-5.7a2.13,2.13,0,0,1,2.28-2.34c2.4,0,3.06,1.2,3.06,2.88,0,2.34-10.2,10.56-15.54,10.56-3,0-4.74-2.16-4.74-5V18.26l-3.84.6a2.21,2.21,0,0,1-1.2.54c-1.5-.06-2.46-1-2.46-2.82a2.45,2.45,0,0,1,2.4-2.58,1.59,1.59,0,0,1,1,.36l4.08-.72Z"/><path class="cls-1" d="M172.58,35.84a2.28,2.28,0,0,1,1,1.8c0,1-1.5,2.52-3.6,2.52-1.86,0-3.48-1-3.48-2.88a3.26,3.26,0,0,1,.54-1.62V5.78a5.4,5.4,0,0,1-.6-2c0-2.58.72-3.24,3.72-3.24,1.56,0,3.36,1,3.36,2.82a4.38,4.38,0,0,1-.9,2.64"/><path class="cls-1" d="M189.08,18.74a2.5,2.5,0,0,1-1.2-2.34c0-1.68,2-2.7,3.24-2.7,2.28,0,3.18,1.5,3,3.12l8.76,15.3,6.18-15.9a2.56,2.56,0,0,1,2.76-2.76c2,0,3.36,1,3.36,2.52a2.46,2.46,0,0,1-1.32,2.16L203.17,44.06c-2.64,6.54-5.76,8-9.36,8a7.16,7.16,0,0,1-7.14-5.1c-.36-1-1-.66-1-2.1a2.68,2.68,0,0,1,2.88-2.76c1.86,0,3.06.66,3.06,2.22a8.66,8.66,0,0,1-.24,1.32c0,.9,1.08,1.8,2.46,1.8,2.22,0,3.84-2.4,6.48-9.24Z"/><circle class="cls-1" cx="58.73" cy="23.18" r="18.75"/><circle class="cls-2" cx="58.73" cy="23.18" r="15.5"/><circle class="cls-3" cx="58.73" cy="23.18" r="11.9"/><circle class="cls-1" cx="58.73" cy="23.87" r="6"/></g></g></svg>