<?xml version="1.0" ?><!DOCTYPE svg  PUBLIC '-//W3C//DTD SVG 1.1//EN'  'http://www.w3.org/Graphics/SVG/1.1/DTD/svg11.dtd'><svg enable-background="new 0 0 512 512" height="512px" id="Layer_1" version="1.1" viewBox="0 0 512 512" width="512px" xml:space="preserve" xmlns="http://www.w3.org/2000/svg" xmlns:xlink="http://www.w3.org/1999/xlink"><path d="M480,384h-32V64H128V32c0-17.688,14.312-32,32-32h320c17.688,0,32,14.312,32,32v320C512,369.688,497.688,384,480,384z   M416,128v352c0,17.688-14.312,32-32,32H32c-17.688,0-32-14.312-32-32V128c0-17.688,14.312-32,32-32h352  C401.688,96,416,110.312,416,128z M352,160H64v96h288V160z M352,320H64v128h288V320z M128,224H96v-32h32V224z M192,224h-32v-32h32  V224z M320,224h-96v-32h96V224z"/></svg>